<?xml version="1.0" encoding="UTF-8"?>
<svg id="Layer_1" data-name="Layer 1" xmlns="http://www.w3.org/2000/svg" viewBox="0 0 1249.55 332.89">
  <defs>
    <style>
      .cls-1 {
        fill: #fff;
      }
    </style>
  </defs>
  <g>
    <path class="cls-1" d="M477.94,277.94h-100.31l-13.94,54.95h-90.22L380.94,0h96.38l107.45,332.89h-92.53l-14.31-54.95Zm-18.33-71.98l-31.56-119.67-31.23,119.67h62.79Z"/>
    <path class="cls-1" d="M494.27,0h92.37l64.36,239.57L714.54,0h89.68l-106.18,332.89h-95.77L494.27,0Z"/>
    <path class="cls-1" d="M916.45,277.94h-100.31l-13.94,54.95h-90.22L819.45,0h96.38l107.45,332.89h-92.53l-14.31-54.95Zm-18.33-71.98l-31.56-119.67-31.23,119.67h62.79Z"/>
    <path class="cls-1" d="M1023.29,0h88.36V250.92h137.9v81.97h-226.26V0Z"/>
  </g>
  <g>
    <polygon class="cls-1" points="24.52 183.47 22.99 187.28 22.99 332.89 26.05 332.89 26.05 187.28 24.52 183.47"/>
    <polygon class="cls-1" points="36.53 183.47 35 187.28 35 332.89 38.06 332.89 38.06 187.28 36.53 183.47"/>
    <polygon class="cls-1" points="59.61 183.47 58.08 187.28 58.08 332.89 61.14 332.89 61.14 187.28 59.61 183.47"/>
    <polygon class="cls-1" points="47.59 183.47 46.06 187.28 46.06 332.89 49.12 332.89 49.12 187.28 47.59 183.47"/>
    <polygon class="cls-1" points="190.18 0 190.18 184.17 82.51 0 0 0 0 332.89 15.25 332.89 15.25 178.27 7.47 178.27 7.47 121.94 26.26 103.15 26.26 89.16 26.33 88.92 40.33 39.23 42.07 39.72 43.8 39.23 57.88 89.16 57.88 103.15 76.66 121.94 76.66 178.27 68.88 178.27 68.88 332.89 83.09 332.89 83.09 150.11 190.18 332.89 273.47 332.89 273.47 0 190.18 0"/>
    <path class="cls-1" d="M73.05,174.66v-51.23l-18.79-18.79v-14.98l-12.2-43.28-12.2,43.28v14.98l-18.79,18.79v51.23h7.78v158.23h2.32V186.93l3.34-8.32,3.34,8.32v145.96h5.34V186.93l3.34-8.32,3.34,8.32v145.96h4.38V186.93l3.34-8.32,3.34,8.32v145.96h5.35V186.93l3.34-8.32,3.34,8.32v145.96h2.32V174.66h7.78Zm-25.75-80.91l2.91-3.83,2.91,3.83v10.22h-1.81v-9.61l-1.1-1.45-1.1,1.45v9.61h-1.81v-10.22Zm-8.14,0l2.91-3.83,2.91,3.83v10.22h-1.81v-9.61l-1.1-1.45-1.1,1.45v9.61h-1.81v-10.22Zm-8.31,0l2.91-3.83,2.91,3.83v10.22h-1.81v-9.61l-1.1-1.45-1.1,1.45v9.61h-1.81v-10.22Zm11.22,74.75c-12.11,0-21.97-9.85-21.97-21.97s9.86-21.97,21.97-21.97,21.97,9.85,21.97,21.97-9.86,21.97-21.97,21.97Z"/>
  </g>
</svg>